<svg id="Icons" height="512" viewBox="0 0 74 74" width="512" xmlns="http://www.w3.org/2000/svg"><path d="m71 72h-68a1 1 0 0 1 -1-1v-68a1 1 0 0 1 1.707-.707l68 68a1 1 0 0 1 -.707 1.707zm-67-2h64.586l-64.586-64.586z"/><path d="m44.443 61h-30.443a1 1 0 0 1 -1-1v-30.444a1 1 0 0 1 1.707-.707l30.443 30.444a1 1 0 0 1 -.707 1.707zm-29.443-2h27.029l-27.029-27.03z"/><path d="m54.531 72a1 1 0 0 1 -1-1v-2.9a1 1 0 0 1 2 0v2.9a1 1 0 0 1 -1 1z"/><path d="m47.531 72a1 1 0 0 1 -1-1v-4a1 1 0 0 1 2 0v4a1 1 0 0 1 -1 1z"/><path d="m40.531 72a1 1 0 0 1 -1-1v-2.9a1 1 0 0 1 2 0v2.9a1 1 0 0 1 -1 1z"/><path d="m33.531 72a1 1 0 0 1 -1-1v-4a1 1 0 0 1 2 0v4a1 1 0 0 1 -1 1z"/><path d="m26.531 72a1 1 0 0 1 -1-1v-2.9a1 1 0 0 1 2 0v2.9a1 1 0 0 1 -1 1z"/><path d="m19.531 72a1 1 0 0 1 -1-1v-4a1 1 0 0 1 2 0v4a1 1 0 0 1 -1 1z"/><path d="m12.531 72a1 1 0 0 1 -1-1v-2.9a1 1 0 0 1 2 0v2.9a1 1 0 0 1 -1 1z"/><path d="m5.9 61h-2.9a1 1 0 0 1 0-2h2.9a1 1 0 1 1 0 2z"/><path d="m7 54h-4a1 1 0 0 1 0-2h4a1 1 0 0 1 0 2z"/><path d="m5.9 47h-2.9a1 1 0 0 1 0-2h2.9a1 1 0 1 1 0 2z"/><path d="m7 40h-4a1 1 0 0 1 0-2h4a1 1 0 0 1 0 2z"/><path d="m5.9 33h-2.9a1 1 0 0 1 0-2h2.9a1 1 0 1 1 0 2z"/><path d="m7 26h-4a1 1 0 0 1 0-2h4a1 1 0 0 1 0 2z"/><path d="m5.9 19h-2.9a1 1 0 0 1 0-2h2.9a1 1 0 1 1 0 2z"/></svg>